# xmcd
#
# Track frame offsets:
#	183
#	14200
#	26390
#	38045
#	51383
#	63745
#	78298
#	89440
#	99493
#	110110
#	120500
#	131913
#
# Disc length: 1934 seconds
#
# Revision: 5
# Processed by: cddbd v1.5.2PL0 Copyright (c) Steve Scherf et al.
# Submitted via: audiograbber 1.83.01
#
DISCID=a7078c0c
DTITLE=Verzamelingen - The Country Collection
DYEAR=1988
DGENRE=Country
TTITLE0=Willie Nelson - Home Is Where You're Happy
TTITLE1=Billie Jo Spears - Look What They've Done To My Song
TTITLE2=Dolly Parton - Makin' Believe
TTITLE3=Kenny Rogers - Ruby, Don't Take Your Love To Town
TTITLE4=Faron Young - Sweet Dreams
TTITLE5=Patsy Cline - Then You'll Know
TTITLE6=Stonewall Jackson - Things To Talk About
TTITLE7=Willie Nelson - I Didn't Sleep A Wink
TTITLE8=Ferlin Husky - Wings Of A Dove
TTITLE9=Waylon Jennings - White Lightning
TTITLE10=George Jones - I'm Wasting Good Paper
TTITLE11=B.J. Thomas - Raindrops
EXTD=
EXTT0=
EXTT1=
EXTT2=
EXTT3=
EXTT4=
EXTT5=
EXTT6=
EXTT7=
EXTT8=
EXTT9=
EXTT10=
EXTT11=
PLAYORDER=
